<svg width="24" height="24" viewBox="0 0 24 24" fill="none" xmlns="http://www.w3.org/2000/svg">
<path d="M2 5.375C2 4.47989 2.35558 3.62145 2.98851 2.98851C3.62145 2.35558 4.47989 2 5.375 2H18.125C19.0201 2 19.8785 2.35558 20.5115 2.98851C21.1444 3.62145 21.5 4.47989 21.5 5.375V18.125C21.5 19.0201 21.1444 19.8785 20.5115 20.5115C19.8785 21.1444 19.0201 21.5 18.125 21.5H5.375C4.47989 21.5 3.62145 21.1444 2.98851 20.5115C2.35558 19.8785 2 19.0201 2 18.125V5.375ZM2.75 15.5V18.125C2.75 18.8212 3.02656 19.4889 3.51884 19.9812C4.01113 20.4734 4.67881 20.75 5.375 20.75H8V15.5H2.75ZM8 14.75V8.75H2.75V14.75H8ZM8.75 15.5V20.75H14.75V15.5H8.75ZM14.75 14.75V8.75H8.75V14.75H14.75ZM15.5 15.5V20.75H18.125C18.8212 20.75 19.4889 20.4734 19.9812 19.9812C20.4734 19.4889 20.75 18.8212 20.75 18.125V15.5H15.5ZM20.75 14.75V8.75H15.5V14.75H20.75ZM5.375 2.75C4.67881 2.75 4.01113 3.02656 3.51884 3.51884C3.02656 4.01113 2.75 4.67881 2.75 5.375V8H8V2.75H5.375ZM14.75 2.75H8.75V8H14.75V2.75ZM15.5 2.75V8H20.75V5.375C20.75 4.67881 20.4734 4.01113 19.9812 3.51884C19.4889 3.02656 18.8212 2.75 18.125 2.75H15.5Z" fill="black"/>
</svg>
