<svg width="283" height="53" viewBox="0 0 283 53" fill="none" xmlns="http://www.w3.org/2000/svg">
<path d="M15.2302 50H4.4575V15.0909H15.7075C19.0939 15.0909 21.9916 15.7898 24.4007 17.1875C26.8098 18.5739 28.6564 20.5682 29.9405 23.1705C31.2245 25.7614 31.8666 28.8636 31.8666 32.4773C31.8666 36.1136 31.2189 39.2443 29.9234 41.8693C28.628 44.483 26.7416 46.4943 24.2643 47.9034C21.787 49.3011 18.7757 50 15.2302 50ZM8.68477 46.25H14.9575C17.8439 46.25 20.2359 45.6932 22.1336 44.5795C24.0314 43.4659 25.4461 41.8807 26.378 39.8239C27.3098 37.767 27.7757 35.3182 27.7757 32.4773C27.7757 29.6591 27.3155 27.233 26.395 25.1989C25.4745 23.1534 24.0995 21.5852 22.27 20.4943C20.4405 19.392 18.162 18.8409 15.4348 18.8409H8.68477V46.25ZM49.3893 50.5455C46.8666 50.5455 44.6905 49.9886 42.8609 48.875C41.0427 47.75 39.6393 46.1818 38.6507 44.1705C37.6734 42.1477 37.1848 39.7955 37.1848 37.1136C37.1848 34.4318 37.6734 32.0682 38.6507 30.0227C39.6393 27.9659 41.0143 26.3636 42.7757 25.2159C44.5484 24.0568 46.6166 23.4773 48.9802 23.4773C50.3439 23.4773 51.6905 23.7045 53.02 24.1591C54.3495 24.6136 55.5598 25.3523 56.6507 26.375C57.7416 27.3864 58.6109 28.7273 59.2586 30.3977C59.9064 32.0682 60.2302 34.125 60.2302 36.5682V38.2727H40.0484V34.7955H56.1393C56.1393 33.3182 55.8439 32 55.253 30.8409C54.6734 29.6818 53.8439 28.767 52.7643 28.0966C51.6961 27.4261 50.4348 27.0909 48.9802 27.0909C47.378 27.0909 45.9916 27.4886 44.8211 28.2841C43.662 29.0682 42.77 30.0909 42.145 31.3523C41.52 32.6136 41.2075 33.9659 41.2075 35.4091V37.7273C41.2075 39.7045 41.5484 41.3807 42.2302 42.7557C42.9234 44.1193 43.8836 45.1591 45.1109 45.875C46.3382 46.5795 47.7643 46.9318 49.3893 46.9318C50.4461 46.9318 51.4007 46.7841 52.253 46.4886C53.1166 46.1818 53.8609 45.7273 54.4859 45.125C55.1109 44.5114 55.5939 43.75 55.9348 42.8409L59.8211 43.9318C59.412 45.25 58.7245 46.4091 57.7586 47.4091C56.7927 48.3977 55.5995 49.1705 54.1791 49.7273C52.7586 50.2727 51.162 50.5455 49.3893 50.5455ZM86.9618 23.8182L77.2799 50H73.189L63.5072 23.8182H67.8708L75.0981 44.6818H75.3708L82.5981 23.8182H86.9618ZM120.908 26H116.681C116.431 24.7841 115.993 23.7159 115.368 22.7955C114.754 21.875 114.004 21.1023 113.118 20.4773C112.243 19.8409 111.271 19.3636 110.203 19.0455C109.135 18.7273 108.021 18.5682 106.862 18.5682C104.749 18.5682 102.834 19.1023 101.118 20.1705C99.4135 21.2386 98.0555 22.8125 97.0441 24.892C96.0441 26.9716 95.5441 29.5227 95.5441 32.5455C95.5441 35.5682 96.0441 38.1193 97.0441 40.1989C98.0555 42.2784 99.4135 43.8523 101.118 44.9205C102.834 45.9886 104.749 46.5227 106.862 46.5227C108.021 46.5227 109.135 46.3636 110.203 46.0455C111.271 45.7273 112.243 45.2557 113.118 44.6307C114.004 43.9943 114.754 43.2159 115.368 42.2955C115.993 41.3636 116.431 40.2955 116.681 39.0909H120.908C120.59 40.875 120.01 42.4716 119.169 43.8807C118.328 45.2898 117.283 46.4886 116.033 47.4773C114.783 48.4545 113.379 49.1989 111.823 49.7102C110.277 50.2216 108.624 50.4773 106.862 50.4773C103.885 50.4773 101.237 49.75 98.9191 48.2955C96.601 46.8409 94.7771 44.7727 93.4476 42.0909C92.118 39.4091 91.4532 36.2273 91.4532 32.5455C91.4532 28.8636 92.118 25.6818 93.4476 23C94.7771 20.3182 96.601 18.25 98.9191 16.7955C101.237 15.3409 103.885 14.6136 106.862 14.6136C108.624 14.6136 110.277 14.8693 111.823 15.3807C113.379 15.892 114.783 16.642 116.033 17.6307C117.283 18.608 118.328 19.8011 119.169 21.2102C120.01 22.608 120.59 24.2045 120.908 26ZM137.83 50.5455C135.466 50.5455 133.392 49.983 131.608 48.858C129.835 47.733 128.449 46.1591 127.449 44.1364C126.46 42.1136 125.966 39.75 125.966 37.0455C125.966 34.3182 126.46 31.9375 127.449 29.9034C128.449 27.8693 129.835 26.2898 131.608 25.1648C133.392 24.0398 135.466 23.4773 137.83 23.4773C140.193 23.4773 142.261 24.0398 144.034 25.1648C145.818 26.2898 147.205 27.8693 148.193 29.9034C149.193 31.9375 149.693 34.3182 149.693 37.0455C149.693 39.75 149.193 42.1136 148.193 44.1364C147.205 46.1591 145.818 47.733 144.034 48.858C142.261 49.983 140.193 50.5455 137.83 50.5455ZM137.83 46.9318C139.625 46.9318 141.102 46.4716 142.261 45.5511C143.421 44.6307 144.279 43.4205 144.835 41.9205C145.392 40.4205 145.671 38.7955 145.671 37.0455C145.671 35.2955 145.392 33.6648 144.835 32.1534C144.279 30.642 143.421 29.4205 142.261 28.4886C141.102 27.5568 139.625 27.0909 137.83 27.0909C136.034 27.0909 134.557 27.5568 133.398 28.4886C132.239 29.4205 131.381 30.642 130.824 32.1534C130.267 33.6648 129.989 35.2955 129.989 37.0455C129.989 38.7955 130.267 40.4205 130.824 41.9205C131.381 43.4205 132.239 44.6307 133.398 45.5511C134.557 46.4716 136.034 46.9318 137.83 46.9318ZM159.857 34.25V50H155.834V23.8182H159.72V27.9091H160.061C160.675 26.5795 161.607 25.5114 162.857 24.7045C164.107 23.8864 165.72 23.4773 167.698 23.4773C169.47 23.4773 171.021 23.8409 172.351 24.5682C173.681 25.2841 174.715 26.375 175.453 27.8409C176.192 29.2955 176.561 31.1364 176.561 33.3636V50H172.538V33.6364C172.538 31.5795 172.004 29.9773 170.936 28.8295C169.868 27.6705 168.402 27.0909 166.538 27.0909C165.254 27.0909 164.107 27.3693 163.095 27.9261C162.095 28.483 161.306 29.2955 160.726 30.3636C160.146 31.4318 159.857 32.7273 159.857 34.25ZM187.935 34.25V50H183.912V23.8182H187.798V27.9091H188.139C188.753 26.5795 189.685 25.5114 190.935 24.7045C192.185 23.8864 193.798 23.4773 195.776 23.4773C197.548 23.4773 199.1 23.8409 200.429 24.5682C201.759 25.2841 202.793 26.375 203.531 27.8409C204.27 29.2955 204.639 31.1364 204.639 33.3636V50H200.617V33.6364C200.617 31.5795 200.082 29.9773 199.014 28.8295C197.946 27.6705 196.48 27.0909 194.617 27.0909C193.332 27.0909 192.185 27.3693 191.173 27.9261C190.173 28.483 189.384 29.2955 188.804 30.3636C188.225 31.4318 187.935 32.7273 187.935 34.25ZM222.967 50.5455C220.445 50.5455 218.269 49.9886 216.439 48.875C214.621 47.75 213.217 46.1818 212.229 44.1705C211.252 42.1477 210.763 39.7955 210.763 37.1136C210.763 34.4318 211.252 32.0682 212.229 30.0227C213.217 27.9659 214.592 26.3636 216.354 25.2159C218.127 24.0568 220.195 23.4773 222.558 23.4773C223.922 23.4773 225.269 23.7045 226.598 24.1591C227.928 24.6136 229.138 25.3523 230.229 26.375C231.32 27.3864 232.189 28.7273 232.837 30.3977C233.484 32.0682 233.808 34.125 233.808 36.5682V38.2727H213.627V34.7955H229.717C229.717 33.3182 229.422 32 228.831 30.8409C228.252 29.6818 227.422 28.767 226.342 28.0966C225.274 27.4261 224.013 27.0909 222.558 27.0909C220.956 27.0909 219.57 27.4886 218.399 28.2841C217.24 29.0682 216.348 30.0909 215.723 31.3523C215.098 32.6136 214.786 33.9659 214.786 35.4091V37.7273C214.786 39.7045 215.127 41.3807 215.808 42.7557C216.502 44.1193 217.462 45.1591 218.689 45.875C219.916 46.5795 221.342 46.9318 222.967 46.9318C224.024 46.9318 224.979 46.7841 225.831 46.4886C226.695 46.1818 227.439 45.7273 228.064 45.125C228.689 44.5114 229.172 43.75 229.513 42.8409L233.399 43.9318C232.99 45.25 232.303 46.4091 231.337 47.4091C230.371 48.3977 229.178 49.1705 227.757 49.7273C226.337 50.2727 224.74 50.5455 222.967 50.5455ZM250.564 50.5455C248.109 50.5455 245.996 49.9659 244.223 48.8068C242.45 47.6477 241.087 46.0511 240.132 44.017C239.178 41.983 238.7 39.6591 238.7 37.0455C238.7 34.3864 239.189 32.0398 240.166 30.0057C241.155 27.9602 242.53 26.3636 244.291 25.2159C246.064 24.0568 248.132 23.4773 250.496 23.4773C252.337 23.4773 253.996 23.8182 255.473 24.5C256.95 25.1818 258.161 26.1364 259.104 27.3636C260.047 28.5909 260.632 30.0227 260.859 31.6591H256.837C256.53 30.4659 255.848 29.4091 254.791 28.4886C253.746 27.5568 252.337 27.0909 250.564 27.0909C248.996 27.0909 247.621 27.5 246.439 28.3182C245.269 29.125 244.354 30.267 243.695 31.7443C243.047 33.2102 242.723 34.9318 242.723 36.9091C242.723 38.9318 243.041 40.6932 243.678 42.1932C244.325 43.6932 245.234 44.858 246.405 45.6875C247.587 46.517 248.973 46.9318 250.564 46.9318C251.609 46.9318 252.558 46.75 253.411 46.3864C254.263 46.0227 254.984 45.5 255.575 44.8182C256.166 44.1364 256.587 43.3182 256.837 42.3636H260.859C260.632 43.9091 260.07 45.3011 259.172 46.5398C258.286 47.767 257.109 48.7443 255.644 49.4716C254.189 50.1875 252.496 50.5455 250.564 50.5455ZM278.127 23.8182V27.2273H264.558V23.8182H278.127ZM268.513 17.5455H272.536V42.5C272.536 43.6364 272.7 44.4886 273.03 45.0568C273.371 45.6136 273.803 45.9886 274.325 46.1818C274.859 46.3636 275.422 46.4545 276.013 46.4545C276.456 46.4545 276.82 46.4318 277.104 46.3864C277.388 46.3295 277.615 46.2841 277.786 46.25L278.604 49.8636C278.331 49.9659 277.95 50.0682 277.462 50.1705C276.973 50.2841 276.354 50.3409 275.604 50.3409C274.467 50.3409 273.354 50.0966 272.263 49.608C271.183 49.1193 270.286 48.375 269.57 47.375C268.865 46.375 268.513 45.1136 268.513 43.5909V17.5455Z" fill="black"/>
</svg>
