<svg width="87" height="19" viewBox="0 0 87 19" fill="none" xmlns="http://www.w3.org/2000/svg">
<path d="M5.5 18H0.113636V0.545454H5.73864C7.43182 0.545454 8.88068 0.894886 10.0852 1.59375C11.2898 2.28693 12.2131 3.28409 12.8551 4.58523C13.4972 5.88068 13.8182 7.43182 13.8182 9.23864C13.8182 11.0568 13.4943 12.6222 12.8466 13.9347C12.1989 15.2415 11.2557 16.2472 10.017 16.9517C8.77841 17.6506 7.27273 18 5.5 18ZM2.22727 16.125H5.36364C6.80682 16.125 8.00284 15.8466 8.9517 15.2898C9.90057 14.733 10.608 13.9403 11.0739 12.9119C11.5398 11.8835 11.7727 10.6591 11.7727 9.23864C11.7727 7.82955 11.5426 6.61648 11.0824 5.59943C10.6222 4.5767 9.93466 3.79261 9.01989 3.24716C8.10511 2.69602 6.96591 2.42045 5.60227 2.42045H2.22727V16.125ZM22.5795 18.2727C21.3182 18.2727 20.2301 17.9943 19.3153 17.4375C18.4062 16.875 17.7045 16.0909 17.2102 15.0852C16.7216 14.0739 16.4773 12.8977 16.4773 11.5568C16.4773 10.2159 16.7216 9.03409 17.2102 8.01136C17.7045 6.98295 18.392 6.18182 19.2727 5.60795C20.1591 5.02841 21.1932 4.73864 22.375 4.73864C23.0568 4.73864 23.7301 4.85227 24.3949 5.07954C25.0597 5.30682 25.6648 5.67614 26.2102 6.1875C26.7557 6.69318 27.1903 7.36364 27.5142 8.19886C27.8381 9.03409 28 10.0625 28 11.2841V12.1364H17.9091V10.3977H25.9545C25.9545 9.65909 25.8068 9 25.5114 8.42045C25.2216 7.84091 24.8068 7.38352 24.267 7.0483C23.733 6.71307 23.1023 6.54545 22.375 6.54545C21.5739 6.54545 20.8807 6.74432 20.2955 7.14205C19.7159 7.53409 19.2699 8.04545 18.9574 8.67614C18.6449 9.30682 18.4886 9.98295 18.4886 10.7045V11.8636C18.4886 12.8523 18.6591 13.6903 19 14.3778C19.3466 15.0597 19.8267 15.5795 20.4403 15.9375C21.054 16.2898 21.767 16.4659 22.5795 16.4659C23.108 16.4659 23.5852 16.392 24.0114 16.2443C24.4432 16.0909 24.8153 15.8636 25.1278 15.5625C25.4403 15.2557 25.6818 14.875 25.8523 14.4205L27.7955 14.9659C27.5909 15.625 27.2472 16.2045 26.7642 16.7045C26.2813 17.1989 25.6847 17.5852 24.9744 17.8636C24.2642 18.1364 23.4659 18.2727 22.5795 18.2727ZM41.3658 4.90909L36.5249 18H34.4794L29.6385 4.90909H31.8203L35.4339 15.3409H35.5703L39.1839 4.90909H41.3658ZM58.3388 6H56.2251C56.1001 5.39205 55.8814 4.85795 55.5689 4.39773C55.2621 3.9375 54.8871 3.55114 54.4439 3.23864C54.0064 2.92045 53.5206 2.68182 52.9865 2.52273C52.4524 2.36364 51.8956 2.28409 51.3161 2.28409C50.2592 2.28409 49.3018 2.55114 48.4439 3.08523C47.5916 3.61932 46.9126 4.40625 46.407 5.44602C45.907 6.4858 45.657 7.76136 45.657 9.27273C45.657 10.7841 45.907 12.0597 46.407 13.0994C46.9126 14.1392 47.5916 14.9261 48.4439 15.4602C49.3018 15.9943 50.2592 16.2614 51.3161 16.2614C51.8956 16.2614 52.4524 16.1818 52.9865 16.0227C53.5206 15.8636 54.0064 15.6278 54.4439 15.3153C54.8871 14.9972 55.2621 14.608 55.5689 14.1477C55.8814 13.6818 56.1001 13.1477 56.2251 12.5455H58.3388C58.1797 13.4375 57.8899 14.2358 57.4695 14.9403C57.049 15.6449 56.5263 16.2443 55.9013 16.7386C55.2763 17.2273 54.5746 17.5994 53.7962 17.8551C53.0234 18.1108 52.1967 18.2386 51.3161 18.2386C49.8274 18.2386 48.5036 17.875 47.3445 17.1477C46.1854 16.4205 45.2734 15.3864 44.6087 14.0455C43.9439 12.7045 43.6115 11.1136 43.6115 9.27273C43.6115 7.43182 43.9439 5.84091 44.6087 4.5C45.2734 3.15909 46.1854 2.125 47.3445 1.39773C48.5036 0.670454 49.8274 0.306818 51.3161 0.306818C52.1967 0.306818 53.0234 0.434659 53.7962 0.690341C54.5746 0.946023 55.2763 1.32102 55.9013 1.81534C56.5263 2.30398 57.049 2.90057 57.4695 3.60511C57.8899 4.30398 58.1797 5.10227 58.3388 6ZM66.7997 18.2727C65.6179 18.2727 64.581 17.9915 63.6889 17.429C62.8026 16.8665 62.1094 16.0795 61.6094 15.0682C61.1151 14.0568 60.8679 12.875 60.8679 11.5227C60.8679 10.1591 61.1151 8.96875 61.6094 7.9517C62.1094 6.93466 62.8026 6.14489 63.6889 5.58239C64.581 5.01989 65.6179 4.73864 66.7997 4.73864C67.9815 4.73864 69.0156 5.01989 69.902 5.58239C70.794 6.14489 71.4872 6.93466 71.9815 7.9517C72.4815 8.96875 72.7315 10.1591 72.7315 11.5227C72.7315 12.875 72.4815 14.0568 71.9815 15.0682C71.4872 16.0795 70.794 16.8665 69.902 17.429C69.0156 17.9915 67.9815 18.2727 66.7997 18.2727ZM66.7997 16.4659C67.6974 16.4659 68.4361 16.2358 69.0156 15.7756C69.5952 15.3153 70.0241 14.7102 70.3026 13.9602C70.581 13.2102 70.7202 12.3977 70.7202 11.5227C70.7202 10.6477 70.581 9.83239 70.3026 9.0767C70.0241 8.32102 69.5952 7.71023 69.0156 7.24432C68.4361 6.77841 67.6974 6.54545 66.7997 6.54545C65.902 6.54545 65.1634 6.77841 64.5838 7.24432C64.0043 7.71023 63.5753 8.32102 63.2969 9.0767C63.0185 9.83239 62.8793 10.6477 62.8793 11.5227C62.8793 12.3977 63.0185 13.2102 63.2969 13.9602C63.5753 14.7102 64.0043 15.3153 64.5838 15.7756C65.1634 16.2358 65.902 16.4659 66.7997 16.4659ZM77.8132 10.125V18H75.8018V4.90909H77.745V6.95455H77.9155C78.2223 6.28977 78.6882 5.75568 79.3132 5.35227C79.9382 4.94318 80.745 4.73864 81.7337 4.73864C82.62 4.73864 83.3956 4.92045 84.0604 5.28409C84.7251 5.64205 85.2422 6.1875 85.6115 6.92045C85.9808 7.64773 86.1655 8.56818 86.1655 9.68182V18H84.1541V9.81818C84.1541 8.78977 83.8871 7.98864 83.353 7.41477C82.8189 6.83523 82.0859 6.54545 81.1541 6.54545C80.5121 6.54545 79.9382 6.68466 79.4325 6.96307C78.9325 7.24148 78.5376 7.64773 78.2479 8.18182C77.9581 8.71591 77.8132 9.36364 77.8132 10.125Z" fill="white"/>
</svg>
