<svg width="165" height="25" viewBox="0 0 165 25" fill="none" xmlns="http://www.w3.org/2000/svg">
<path d="M8 24H0.818182V0.727272H8.31818C10.5758 0.727272 12.5076 1.19318 14.1136 2.125C15.7197 3.04924 16.9508 4.37879 17.8068 6.11364C18.6629 7.84091 19.0909 9.90909 19.0909 12.3182C19.0909 14.7424 18.6591 16.8295 17.7955 18.5795C16.9318 20.322 15.6742 21.6629 14.0227 22.6023C12.3712 23.5341 10.3636 24 8 24ZM3.63636 21.5H7.81818C9.74242 21.5 11.3371 21.1288 12.6023 20.3864C13.8674 19.6439 14.8106 18.5871 15.4318 17.2159C16.053 15.8447 16.3636 14.2121 16.3636 12.3182C16.3636 10.4394 16.0568 8.82197 15.4432 7.46591C14.8295 6.10227 13.9129 5.05682 12.6932 4.32954C11.4735 3.5947 9.95455 3.22727 8.13636 3.22727H3.63636V21.5ZM30.7727 24.3636C29.0909 24.3636 27.6402 23.9924 26.4205 23.25C25.2083 22.5 24.2727 21.4545 23.6136 20.1136C22.9621 18.7652 22.6364 17.197 22.6364 15.4091C22.6364 13.6212 22.9621 12.0455 23.6136 10.6818C24.2727 9.31061 25.1894 8.24242 26.3636 7.47727C27.5455 6.70455 28.9242 6.31818 30.5 6.31818C31.4091 6.31818 32.3068 6.4697 33.1932 6.77273C34.0795 7.07576 34.8864 7.56818 35.6136 8.25C36.3409 8.92424 36.9205 9.81818 37.3523 10.9318C37.7841 12.0455 38 13.4167 38 15.0455V16.1818H24.5455V13.8636H35.2727C35.2727 12.8788 35.0758 12 34.6818 11.2273C34.2955 10.4545 33.7424 9.8447 33.0227 9.39773C32.3106 8.95076 31.4697 8.72727 30.5 8.72727C29.4318 8.72727 28.5076 8.99242 27.7273 9.52273C26.9545 10.0455 26.3598 10.7273 25.9432 11.5682C25.5265 12.4091 25.3182 13.3106 25.3182 14.2727V15.8182C25.3182 17.1364 25.5455 18.2538 26 19.1705C26.4621 20.0795 27.1023 20.7727 27.9205 21.25C28.7386 21.7197 29.6894 21.9545 30.7727 21.9545C31.4773 21.9545 32.1136 21.8561 32.6818 21.6591C33.2576 21.4545 33.7538 21.1515 34.1705 20.75C34.5871 20.3409 34.9091 19.8333 35.1364 19.2273L37.7273 19.9545C37.4545 20.8333 36.9962 21.6061 36.3523 22.2727C35.7083 22.9318 34.9129 23.447 33.9659 23.8182C33.0189 24.1818 31.9545 24.3636 30.7727 24.3636ZM55.821 6.54545L49.3665 24H46.6392L40.1847 6.54545H43.0938L47.9119 20.4545H48.0938L52.9119 6.54545H55.821ZM78.4517 8H75.6335C75.4669 7.18939 75.1752 6.47727 74.7585 5.86364C74.3494 5.25 73.8494 4.73485 73.2585 4.31818C72.6752 3.89394 72.0275 3.57576 71.3153 3.36364C70.6032 3.15151 69.8608 3.04545 69.0881 3.04545C67.679 3.04545 66.4025 3.40151 65.2585 4.11364C64.1222 4.82576 63.2169 5.875 62.5426 7.26136C61.8759 8.64773 61.5426 10.3485 61.5426 12.3636C61.5426 14.3788 61.8759 16.0795 62.5426 17.4659C63.2169 18.8523 64.1222 19.9015 65.2585 20.6136C66.4025 21.3258 67.679 21.6818 69.0881 21.6818C69.8608 21.6818 70.6032 21.5758 71.3153 21.3636C72.0275 21.1515 72.6752 20.8371 73.2585 20.4205C73.8494 19.9962 74.3494 19.4773 74.7585 18.8636C75.1752 18.2424 75.4669 17.5303 75.6335 16.7273H78.4517C78.2396 17.9167 77.8532 18.9811 77.2926 19.9205C76.732 20.8598 76.035 21.6591 75.2017 22.3182C74.3684 22.9697 73.4328 23.4659 72.3949 23.8068C71.3646 24.1477 70.2623 24.3182 69.0881 24.3182C67.1032 24.3182 65.3381 23.8333 63.7926 22.8636C62.2472 21.8939 61.0313 20.5152 60.1449 18.7273C59.2585 16.9394 58.8153 14.8182 58.8153 12.3636C58.8153 9.90909 59.2585 7.78788 60.1449 6C61.0313 4.21212 62.2472 2.83333 63.7926 1.86364C65.3381 0.893939 67.1032 0.40909 69.0881 0.40909C70.2623 0.40909 71.3646 0.579545 72.3949 0.920454C73.4328 1.26136 74.3684 1.76136 75.2017 2.42045C76.035 3.07197 76.732 3.86742 77.2926 4.80682C77.8532 5.73864 78.2396 6.80303 78.4517 8ZM89.733 24.3636C88.1572 24.3636 86.7746 23.9886 85.5852 23.2386C84.4034 22.4886 83.4792 21.4394 82.8125 20.0909C82.1534 18.7424 81.8239 17.1667 81.8239 15.3636C81.8239 13.5455 82.1534 11.9583 82.8125 10.6023C83.4792 9.24621 84.4034 8.19318 85.5852 7.44318C86.7746 6.69318 88.1572 6.31818 89.733 6.31818C91.3087 6.31818 92.6875 6.69318 93.8693 7.44318C95.0587 8.19318 95.983 9.24621 96.642 10.6023C97.3087 11.9583 97.642 13.5455 97.642 15.3636C97.642 17.1667 97.3087 18.7424 96.642 20.0909C95.983 21.4394 95.0587 22.4886 93.8693 23.2386C92.6875 23.9886 91.3087 24.3636 89.733 24.3636ZM89.733 21.9545C90.9299 21.9545 91.9148 21.6477 92.6875 21.0341C93.4602 20.4205 94.0322 19.6136 94.4034 18.6136C94.7746 17.6136 94.9602 16.5303 94.9602 15.3636C94.9602 14.197 94.7746 13.1098 94.4034 12.1023C94.0322 11.0947 93.4602 10.2803 92.6875 9.65909C91.9148 9.03788 90.9299 8.72727 89.733 8.72727C88.536 8.72727 87.5511 9.03788 86.7784 9.65909C86.0057 10.2803 85.4337 11.0947 85.0625 12.1023C84.6913 13.1098 84.5057 14.197 84.5057 15.3636C84.5057 16.5303 84.6913 17.6136 85.0625 18.6136C85.4337 19.6136 86.0057 20.4205 86.7784 21.0341C87.5511 21.6477 88.536 21.9545 89.733 21.9545ZM104.418 13.5V24H101.736V6.54545H104.327V9.27273H104.554C104.963 8.38636 105.584 7.67424 106.418 7.13636C107.251 6.59091 108.327 6.31818 109.645 6.31818C110.827 6.31818 111.861 6.56061 112.747 7.04545C113.634 7.52273 114.323 8.25 114.815 9.22727C115.308 10.197 115.554 11.4242 115.554 12.9091V24H112.872V13.0909C112.872 11.7197 112.516 10.6515 111.804 9.88636C111.092 9.11364 110.115 8.72727 108.872 8.72727C108.016 8.72727 107.251 8.91288 106.577 9.28409C105.91 9.6553 105.384 10.197 104.997 10.9091C104.611 11.6212 104.418 12.4848 104.418 13.5ZM127.773 24.3636C126.091 24.3636 124.64 23.9924 123.42 23.25C122.208 22.5 121.273 21.4545 120.614 20.1136C119.962 18.7652 119.636 17.197 119.636 15.4091C119.636 13.6212 119.962 12.0455 120.614 10.6818C121.273 9.31061 122.189 8.24242 123.364 7.47727C124.545 6.70455 125.924 6.31818 127.5 6.31818C128.409 6.31818 129.307 6.4697 130.193 6.77273C131.08 7.07576 131.886 7.56818 132.614 8.25C133.341 8.92424 133.92 9.81818 134.352 10.9318C134.784 12.0455 135 13.4167 135 15.0455V16.1818H121.545V13.8636H132.273C132.273 12.8788 132.076 12 131.682 11.2273C131.295 10.4545 130.742 9.8447 130.023 9.39773C129.311 8.95076 128.47 8.72727 127.5 8.72727C126.432 8.72727 125.508 8.99242 124.727 9.52273C123.955 10.0455 123.36 10.7273 122.943 11.5682C122.527 12.4091 122.318 13.3106 122.318 14.2727V15.8182C122.318 17.1364 122.545 18.2538 123 19.1705C123.462 20.0795 124.102 20.7727 124.92 21.25C125.739 21.7197 126.689 21.9545 127.773 21.9545C128.477 21.9545 129.114 21.8561 129.682 21.6591C130.258 21.4545 130.754 21.1515 131.17 20.75C131.587 20.3409 131.909 19.8333 132.136 19.2273L134.727 19.9545C134.455 20.8333 133.996 21.6061 133.352 22.2727C132.708 22.9318 131.913 23.447 130.966 23.8182C130.019 24.1818 128.955 24.3636 127.773 24.3636ZM146.17 24.3636C144.534 24.3636 143.125 23.9773 141.943 23.2045C140.761 22.4318 139.852 21.3674 139.216 20.0114C138.58 18.6553 138.261 17.1061 138.261 15.3636C138.261 13.5909 138.587 12.0265 139.239 10.6705C139.898 9.30682 140.814 8.24242 141.989 7.47727C143.17 6.70455 144.549 6.31818 146.125 6.31818C147.352 6.31818 148.458 6.54545 149.443 7C150.428 7.45455 151.235 8.09091 151.864 8.90909C152.492 9.72727 152.883 10.6818 153.034 11.7727H150.352C150.148 10.9773 149.693 10.2727 148.989 9.65909C148.292 9.03788 147.352 8.72727 146.17 8.72727C145.125 8.72727 144.208 9 143.42 9.54545C142.64 10.0833 142.03 10.8447 141.591 11.8295C141.159 12.8068 140.943 13.9545 140.943 15.2727C140.943 16.6212 141.155 17.7955 141.58 18.7955C142.011 19.7955 142.617 20.572 143.398 21.125C144.186 21.678 145.11 21.9545 146.17 21.9545C146.867 21.9545 147.5 21.8333 148.068 21.5909C148.636 21.3485 149.117 21 149.511 20.5455C149.905 20.0909 150.186 19.5455 150.352 18.9091H153.034C152.883 19.9394 152.508 20.8674 151.909 21.6932C151.318 22.5114 150.534 23.1629 149.557 23.6477C148.587 24.125 147.458 24.3636 146.17 24.3636ZM164.545 6.54545V8.81818H155.5V6.54545H164.545ZM158.136 2.36364H160.818V19C160.818 19.7576 160.928 20.3258 161.148 20.7045C161.375 21.0758 161.663 21.3258 162.011 21.4545C162.367 21.5758 162.742 21.6364 163.136 21.6364C163.432 21.6364 163.674 21.6212 163.864 21.5909C164.053 21.553 164.205 21.5227 164.318 21.5L164.864 23.9091C164.682 23.9773 164.428 24.0455 164.102 24.1136C163.777 24.1894 163.364 24.2273 162.864 24.2273C162.106 24.2273 161.364 24.0644 160.636 23.7386C159.917 23.4129 159.318 22.9167 158.841 22.25C158.371 21.5833 158.136 20.7424 158.136 19.7273V2.36364Z" fill="white"/>
</svg>
