<svg width="252" height="53" viewBox="0 0 252 53" fill="none" xmlns="http://www.w3.org/2000/svg">
<path d="M15 50H4.22727V15.0909H15.4773C18.8636 15.0909 21.7614 15.7898 24.1705 17.1875C26.5795 18.5739 28.4261 20.5682 29.7102 23.1705C30.9943 25.7614 31.6364 28.8636 31.6364 32.4773C31.6364 36.1136 30.9886 39.2443 29.6932 41.8693C28.3977 44.483 26.5114 46.4943 24.0341 47.9034C21.5568 49.3011 18.5455 50 15 50ZM8.45455 46.25H14.7273C17.6136 46.25 20.0057 45.6932 21.9034 44.5795C23.8011 43.4659 25.2159 41.8807 26.1477 39.8239C27.0795 37.767 27.5455 35.3182 27.5455 32.4773C27.5455 29.6591 27.0852 27.233 26.1648 25.1989C25.2443 23.1534 23.8693 21.5852 22.0398 20.4943C20.2102 19.392 17.9318 18.8409 15.2045 18.8409H8.45455V46.25ZM49.1591 50.5455C46.6364 50.5455 44.4602 49.9886 42.6307 48.875C40.8125 47.75 39.4091 46.1818 38.4205 44.1705C37.4432 42.1477 36.9545 39.7955 36.9545 37.1136C36.9545 34.4318 37.4432 32.0682 38.4205 30.0227C39.4091 27.9659 40.7841 26.3636 42.5455 25.2159C44.3182 24.0568 46.3864 23.4773 48.75 23.4773C50.1136 23.4773 51.4602 23.7045 52.7898 24.1591C54.1193 24.6136 55.3295 25.3523 56.4205 26.375C57.5114 27.3864 58.3807 28.7273 59.0284 30.3977C59.6761 32.0682 60 34.125 60 36.5682V38.2727H39.8182V34.7955H55.9091C55.9091 33.3182 55.6136 32 55.0227 30.8409C54.4432 29.6818 53.6136 28.767 52.5341 28.0966C51.4659 27.4261 50.2045 27.0909 48.75 27.0909C47.1477 27.0909 45.7614 27.4886 44.5909 28.2841C43.4318 29.0682 42.5398 30.0909 41.9148 31.3523C41.2898 32.6136 40.9773 33.9659 40.9773 35.4091V37.7273C40.9773 39.7045 41.3182 41.3807 42 42.7557C42.6932 44.1193 43.6534 45.1591 44.8807 45.875C46.108 46.5795 47.5341 46.9318 49.1591 46.9318C50.2159 46.9318 51.1705 46.7841 52.0227 46.4886C52.8864 46.1818 53.6307 45.7273 54.2557 45.125C54.8807 44.5114 55.3636 43.75 55.7045 42.8409L59.5909 43.9318C59.1818 45.25 58.4943 46.4091 57.5284 47.4091C56.5625 48.3977 55.3693 49.1705 53.9489 49.7273C52.5284 50.2727 50.9318 50.5455 49.1591 50.5455ZM86.7315 23.8182L77.0497 50H72.9588L63.277 23.8182H67.6406L74.8679 44.6818H75.1406L82.3679 23.8182H86.7315ZM120.678 26H116.45C116.2 24.7841 115.763 23.7159 115.138 22.7955C114.524 21.875 113.774 21.1023 112.888 20.4773C112.013 19.8409 111.041 19.3636 109.973 19.0455C108.905 18.7273 107.791 18.5682 106.632 18.5682C104.518 18.5682 102.604 19.1023 100.888 20.1705C99.1832 21.2386 97.8253 22.8125 96.8139 24.892C95.8139 26.9716 95.3139 29.5227 95.3139 32.5455C95.3139 35.5682 95.8139 38.1193 96.8139 40.1989C97.8253 42.2784 99.1832 43.8523 100.888 44.9205C102.604 45.9886 104.518 46.5227 106.632 46.5227C107.791 46.5227 108.905 46.3636 109.973 46.0455C111.041 45.7273 112.013 45.2557 112.888 44.6307C113.774 43.9943 114.524 43.2159 115.138 42.2955C115.763 41.3636 116.2 40.2955 116.45 39.0909H120.678C120.359 40.875 119.78 42.4716 118.939 43.8807C118.098 45.2898 117.053 46.4886 115.803 47.4773C114.553 48.4545 113.149 49.1989 111.592 49.7102C110.047 50.2216 108.393 50.4773 106.632 50.4773C103.655 50.4773 101.007 49.75 98.6889 48.2955C96.3707 46.8409 94.5469 44.7727 93.2173 42.0909C91.8878 39.4091 91.223 36.2273 91.223 32.5455C91.223 28.8636 91.8878 25.6818 93.2173 23C94.5469 20.3182 96.3707 18.25 98.6889 16.7955C101.007 15.3409 103.655 14.6136 106.632 14.6136C108.393 14.6136 110.047 14.8693 111.592 15.3807C113.149 15.892 114.553 16.642 115.803 17.6307C117.053 18.608 118.098 19.8011 118.939 21.2102C119.78 22.608 120.359 24.2045 120.678 26ZM137.599 50.5455C135.236 50.5455 133.162 49.983 131.378 48.858C129.605 47.733 128.219 46.1591 127.219 44.1364C126.23 42.1136 125.736 39.75 125.736 37.0455C125.736 34.3182 126.23 31.9375 127.219 29.9034C128.219 27.8693 129.605 26.2898 131.378 25.1648C133.162 24.0398 135.236 23.4773 137.599 23.4773C139.963 23.4773 142.031 24.0398 143.804 25.1648C145.588 26.2898 146.974 27.8693 147.963 29.9034C148.963 31.9375 149.463 34.3182 149.463 37.0455C149.463 39.75 148.963 42.1136 147.963 44.1364C146.974 46.1591 145.588 47.733 143.804 48.858C142.031 49.983 139.963 50.5455 137.599 50.5455ZM137.599 46.9318C139.395 46.9318 140.872 46.4716 142.031 45.5511C143.19 44.6307 144.048 43.4205 144.605 41.9205C145.162 40.4205 145.44 38.7955 145.44 37.0455C145.44 35.2955 145.162 33.6648 144.605 32.1534C144.048 30.642 143.19 29.4205 142.031 28.4886C140.872 27.5568 139.395 27.0909 137.599 27.0909C135.804 27.0909 134.327 27.5568 133.168 28.4886C132.009 29.4205 131.151 30.642 130.594 32.1534C130.037 33.6648 129.759 35.2955 129.759 37.0455C129.759 38.7955 130.037 40.4205 130.594 41.9205C131.151 43.4205 132.009 44.6307 133.168 45.5511C134.327 46.4716 135.804 46.9318 137.599 46.9318ZM159.626 34.25V50H155.604V23.8182H159.49V27.9091H159.831C160.445 26.5795 161.376 25.5114 162.626 24.7045C163.876 23.8864 165.49 23.4773 167.467 23.4773C169.24 23.4773 170.791 23.8409 172.121 24.5682C173.45 25.2841 174.484 26.375 175.223 27.8409C175.962 29.2955 176.331 31.1364 176.331 33.3636V50H172.308V33.6364C172.308 31.5795 171.774 29.9773 170.706 28.8295C169.638 27.6705 168.172 27.0909 166.308 27.0909C165.024 27.0909 163.876 27.3693 162.865 27.9261C161.865 28.483 161.075 29.2955 160.496 30.3636C159.916 31.4318 159.626 32.7273 159.626 34.25ZM194.659 50.5455C192.136 50.5455 189.96 49.9886 188.131 48.875C186.312 47.75 184.909 46.1818 183.92 44.1705C182.943 42.1477 182.455 39.7955 182.455 37.1136C182.455 34.4318 182.943 32.0682 183.92 30.0227C184.909 27.9659 186.284 26.3636 188.045 25.2159C189.818 24.0568 191.886 23.4773 194.25 23.4773C195.614 23.4773 196.96 23.7045 198.29 24.1591C199.619 24.6136 200.83 25.3523 201.92 26.375C203.011 27.3864 203.881 28.7273 204.528 30.3977C205.176 32.0682 205.5 34.125 205.5 36.5682V38.2727H185.318V34.7955H201.409C201.409 33.3182 201.114 32 200.523 30.8409C199.943 29.6818 199.114 28.767 198.034 28.0966C196.966 27.4261 195.705 27.0909 194.25 27.0909C192.648 27.0909 191.261 27.4886 190.091 28.2841C188.932 29.0682 188.04 30.0909 187.415 31.3523C186.79 32.6136 186.477 33.9659 186.477 35.4091V37.7273C186.477 39.7045 186.818 41.3807 187.5 42.7557C188.193 44.1193 189.153 45.1591 190.381 45.875C191.608 46.5795 193.034 46.9318 194.659 46.9318C195.716 46.9318 196.67 46.7841 197.523 46.4886C198.386 46.1818 199.131 45.7273 199.756 45.125C200.381 44.5114 200.864 43.75 201.205 42.8409L205.091 43.9318C204.682 45.25 203.994 46.4091 203.028 47.4091C202.063 48.3977 200.869 49.1705 199.449 49.7273C198.028 50.2727 196.432 50.5455 194.659 50.5455ZM222.256 50.5455C219.801 50.5455 217.688 49.9659 215.915 48.8068C214.142 47.6477 212.778 46.0511 211.824 44.017C210.869 41.983 210.392 39.6591 210.392 37.0455C210.392 34.3864 210.881 32.0398 211.858 30.0057C212.847 27.9602 214.222 26.3636 215.983 25.2159C217.756 24.0568 219.824 23.4773 222.188 23.4773C224.028 23.4773 225.688 23.8182 227.165 24.5C228.642 25.1818 229.852 26.1364 230.795 27.3636C231.739 28.5909 232.324 30.0227 232.551 31.6591H228.528C228.222 30.4659 227.54 29.4091 226.483 28.4886C225.438 27.5568 224.028 27.0909 222.256 27.0909C220.688 27.0909 219.313 27.5 218.131 28.3182C216.96 29.125 216.045 30.267 215.386 31.7443C214.739 33.2102 214.415 34.9318 214.415 36.9091C214.415 38.9318 214.733 40.6932 215.369 42.1932C216.017 43.6932 216.926 44.858 218.097 45.6875C219.278 46.517 220.665 46.9318 222.256 46.9318C223.301 46.9318 224.25 46.75 225.102 46.3864C225.955 46.0227 226.676 45.5 227.267 44.8182C227.858 44.1364 228.278 43.3182 228.528 42.3636H232.551C232.324 43.9091 231.761 45.3011 230.864 46.5398C229.977 47.767 228.801 48.7443 227.335 49.4716C225.881 50.1875 224.188 50.5455 222.256 50.5455ZM249.818 23.8182V27.2273H236.25V23.8182H249.818ZM240.205 17.5455H244.227V42.5C244.227 43.6364 244.392 44.4886 244.722 45.0568C245.063 45.6136 245.494 45.9886 246.017 46.1818C246.551 46.3636 247.114 46.4545 247.705 46.4545C248.148 46.4545 248.511 46.4318 248.795 46.3864C249.08 46.3295 249.307 46.2841 249.477 46.25L250.295 49.8636C250.023 49.9659 249.642 50.0682 249.153 50.1705C248.665 50.2841 248.045 50.3409 247.295 50.3409C246.159 50.3409 245.045 50.0966 243.955 49.608C242.875 49.1193 241.977 48.375 241.261 47.375C240.557 46.375 240.205 45.1136 240.205 43.5909V17.5455Z" fill="black"/>
</svg>
