<svg width="190" height="48" viewBox="0 0 190 48" fill="none" xmlns="http://www.w3.org/2000/svg">
<path d="M10 38H2.81818V14.7273H10.3182C12.5758 14.7273 14.5076 15.1932 16.1136 16.125C17.7197 17.0492 18.9508 18.3788 19.8068 20.1136C20.6629 21.8409 21.0909 23.9091 21.0909 26.3182C21.0909 28.7424 20.6591 30.8295 19.7955 32.5795C18.9318 34.322 17.6742 35.6629 16.0227 36.6023C14.3712 37.5341 12.3636 38 10 38ZM5.63636 35.5H9.81818C11.7424 35.5 13.3371 35.1288 14.6023 34.3864C15.8674 33.6439 16.8106 32.5871 17.4318 31.2159C18.053 29.8447 18.3636 28.2121 18.3636 26.3182C18.3636 24.4394 18.0568 22.822 17.4432 21.4659C16.8295 20.1023 15.9129 19.0568 14.6932 18.3295C13.4735 17.5947 11.9545 17.2273 10.1364 17.2273H5.63636V35.5ZM32.7727 38.3636C31.0909 38.3636 29.6402 37.9924 28.4205 37.25C27.2083 36.5 26.2727 35.4545 25.6136 34.1136C24.9621 32.7652 24.6364 31.197 24.6364 29.4091C24.6364 27.6212 24.9621 26.0455 25.6136 24.6818C26.2727 23.3106 27.1894 22.2424 28.3636 21.4773C29.5455 20.7045 30.9242 20.3182 32.5 20.3182C33.4091 20.3182 34.3068 20.4697 35.1932 20.7727C36.0795 21.0758 36.8864 21.5682 37.6136 22.25C38.3409 22.9242 38.9205 23.8182 39.3523 24.9318C39.7841 26.0455 40 27.4167 40 29.0455V30.1818H26.5455V27.8636H37.2727C37.2727 26.8788 37.0758 26 36.6818 25.2273C36.2955 24.4545 35.7424 23.8447 35.0227 23.3977C34.3106 22.9508 33.4697 22.7273 32.5 22.7273C31.4318 22.7273 30.5076 22.9924 29.7273 23.5227C28.9545 24.0455 28.3598 24.7273 27.9432 25.5682C27.5265 26.4091 27.3182 27.3106 27.3182 28.2727V29.8182C27.3182 31.1364 27.5455 32.2538 28 33.1705C28.4621 34.0795 29.1023 34.7727 29.9205 35.25C30.7386 35.7197 31.6894 35.9545 32.7727 35.9545C33.4773 35.9545 34.1136 35.8561 34.6818 35.6591C35.2576 35.4545 35.7538 35.1515 36.1705 34.75C36.5871 34.3409 36.9091 33.8333 37.1364 33.2273L39.7273 33.9545C39.4545 34.8333 38.9962 35.6061 38.3523 36.2727C37.7083 36.9318 36.9129 37.447 35.9659 37.8182C35.0189 38.1818 33.9545 38.3636 32.7727 38.3636ZM57.821 20.5455L51.3665 38H48.6392L42.1847 20.5455H45.0938L49.9119 34.4545H50.0938L54.9119 20.5455H57.821ZM80.4517 22H77.6335C77.4669 21.1894 77.1752 20.4773 76.7585 19.8636C76.3494 19.25 75.8494 18.7348 75.2585 18.3182C74.6752 17.8939 74.0275 17.5758 73.3153 17.3636C72.6032 17.1515 71.8608 17.0455 71.0881 17.0455C69.679 17.0455 68.4025 17.4015 67.2585 18.1136C66.1222 18.8258 65.2169 19.875 64.5426 21.2614C63.8759 22.6477 63.5426 24.3485 63.5426 26.3636C63.5426 28.3788 63.8759 30.0795 64.5426 31.4659C65.2169 32.8523 66.1222 33.9015 67.2585 34.6136C68.4025 35.3258 69.679 35.6818 71.0881 35.6818C71.8608 35.6818 72.6032 35.5758 73.3153 35.3636C74.0275 35.1515 74.6752 34.8371 75.2585 34.4205C75.8494 33.9962 76.3494 33.4773 76.7585 32.8636C77.1752 32.2424 77.4669 31.5303 77.6335 30.7273H80.4517C80.2396 31.9167 79.8532 32.9811 79.2926 33.9205C78.732 34.8598 78.035 35.6591 77.2017 36.3182C76.3684 36.9697 75.4328 37.4659 74.3949 37.8068C73.3646 38.1477 72.2623 38.3182 71.0881 38.3182C69.1032 38.3182 67.3381 37.8333 65.7926 36.8636C64.2472 35.8939 63.0313 34.5152 62.1449 32.7273C61.2585 30.9394 60.8153 28.8182 60.8153 26.3636C60.8153 23.9091 61.2585 21.7879 62.1449 20C63.0313 18.2121 64.2472 16.8333 65.7926 15.8636C67.3381 14.8939 69.1032 14.4091 71.0881 14.4091C72.2623 14.4091 73.3646 14.5795 74.3949 14.9205C75.4328 15.2614 76.3684 15.7614 77.2017 16.4205C78.035 17.072 78.732 17.8674 79.2926 18.8068C79.8532 19.7386 80.2396 20.803 80.4517 22ZM91.733 38.3636C90.1572 38.3636 88.7746 37.9886 87.5852 37.2386C86.4034 36.4886 85.4792 35.4394 84.8125 34.0909C84.1534 32.7424 83.8239 31.1667 83.8239 29.3636C83.8239 27.5455 84.1534 25.9583 84.8125 24.6023C85.4792 23.2462 86.4034 22.1932 87.5852 21.4432C88.7746 20.6932 90.1572 20.3182 91.733 20.3182C93.3087 20.3182 94.6875 20.6932 95.8693 21.4432C97.0587 22.1932 97.983 23.2462 98.642 24.6023C99.3087 25.9583 99.642 27.5455 99.642 29.3636C99.642 31.1667 99.3087 32.7424 98.642 34.0909C97.983 35.4394 97.0587 36.4886 95.8693 37.2386C94.6875 37.9886 93.3087 38.3636 91.733 38.3636ZM91.733 35.9545C92.9299 35.9545 93.9148 35.6477 94.6875 35.0341C95.4602 34.4205 96.0322 33.6136 96.4034 32.6136C96.7746 31.6136 96.9602 30.5303 96.9602 29.3636C96.9602 28.197 96.7746 27.1098 96.4034 26.1023C96.0322 25.0947 95.4602 24.2803 94.6875 23.6591C93.9148 23.0379 92.9299 22.7273 91.733 22.7273C90.536 22.7273 89.5511 23.0379 88.7784 23.6591C88.0057 24.2803 87.4337 25.0947 87.0625 26.1023C86.6913 27.1098 86.5057 28.197 86.5057 29.3636C86.5057 30.5303 86.6913 31.6136 87.0625 32.6136C87.4337 33.6136 88.0057 34.4205 88.7784 35.0341C89.5511 35.6477 90.536 35.9545 91.733 35.9545ZM106.418 27.5V38H103.736V20.5455H106.327V23.2727H106.554C106.963 22.3864 107.584 21.6742 108.418 21.1364C109.251 20.5909 110.327 20.3182 111.645 20.3182C112.827 20.3182 113.861 20.5606 114.747 21.0455C115.634 21.5227 116.323 22.25 116.815 23.2273C117.308 24.197 117.554 25.4242 117.554 26.9091V38H114.872V27.0909C114.872 25.7197 114.516 24.6515 113.804 23.8864C113.092 23.1136 112.115 22.7273 110.872 22.7273C110.016 22.7273 109.251 22.9129 108.577 23.2841C107.91 23.6553 107.384 24.197 106.997 24.9091C106.611 25.6212 106.418 26.4848 106.418 27.5ZM125.136 27.5V38H122.455V20.5455H125.045V23.2727H125.273C125.682 22.3864 126.303 21.6742 127.136 21.1364C127.97 20.5909 129.045 20.3182 130.364 20.3182C131.545 20.3182 132.58 20.5606 133.466 21.0455C134.352 21.5227 135.042 22.25 135.534 23.2273C136.027 24.197 136.273 25.4242 136.273 26.9091V38H133.591V27.0909C133.591 25.7197 133.235 24.6515 132.523 23.8864C131.811 23.1136 130.833 22.7273 129.591 22.7273C128.735 22.7273 127.97 22.9129 127.295 23.2841C126.629 23.6553 126.102 24.197 125.716 24.9091C125.33 25.6212 125.136 26.4848 125.136 27.5ZM148.491 38.3636C146.81 38.3636 145.359 37.9924 144.139 37.25C142.927 36.5 141.991 35.4545 141.332 34.1136C140.681 32.7652 140.355 31.197 140.355 29.4091C140.355 27.6212 140.681 26.0455 141.332 24.6818C141.991 23.3106 142.908 22.2424 144.082 21.4773C145.264 20.7045 146.643 20.3182 148.219 20.3182C149.128 20.3182 150.026 20.4697 150.912 20.7727C151.798 21.0758 152.605 21.5682 153.332 22.25C154.06 22.9242 154.639 23.8182 155.071 24.9318C155.503 26.0455 155.719 27.4167 155.719 29.0455V30.1818H142.264V27.8636H152.991C152.991 26.8788 152.795 26 152.401 25.2273C152.014 24.4545 151.461 23.8447 150.741 23.3977C150.029 22.9508 149.188 22.7273 148.219 22.7273C147.151 22.7273 146.226 22.9924 145.446 23.5227C144.673 24.0455 144.079 24.7273 143.662 25.5682C143.245 26.4091 143.037 27.3106 143.037 28.2727V29.8182C143.037 31.1364 143.264 32.2538 143.719 33.1705C144.181 34.0795 144.821 34.7727 145.639 35.25C146.457 35.7197 147.408 35.9545 148.491 35.9545C149.196 35.9545 149.832 35.8561 150.401 35.6591C150.976 35.4545 151.473 35.1515 151.889 34.75C152.306 34.3409 152.628 33.8333 152.855 33.2273L155.446 33.9545C155.173 34.8333 154.715 35.6061 154.071 36.2727C153.427 36.9318 152.632 37.447 151.685 37.8182C150.738 38.1818 149.673 38.3636 148.491 38.3636ZM166.889 38.3636C165.253 38.3636 163.844 37.9773 162.662 37.2045C161.48 36.4318 160.571 35.3674 159.935 34.0114C159.298 32.6553 158.98 31.1061 158.98 29.3636C158.98 27.5909 159.306 26.0265 159.957 24.6705C160.616 23.3068 161.533 22.2424 162.707 21.4773C163.889 20.7045 165.268 20.3182 166.844 20.3182C168.071 20.3182 169.177 20.5455 170.162 21C171.147 21.4545 171.954 22.0909 172.582 22.9091C173.211 23.7273 173.601 24.6818 173.753 25.7727H171.071C170.866 24.9773 170.412 24.2727 169.707 23.6591C169.01 23.0379 168.071 22.7273 166.889 22.7273C165.844 22.7273 164.927 23 164.139 23.5455C163.359 24.0833 162.749 24.8447 162.31 25.8295C161.878 26.8068 161.662 27.9545 161.662 29.2727C161.662 30.6212 161.874 31.7955 162.298 32.7955C162.73 33.7955 163.336 34.572 164.116 35.125C164.904 35.678 165.829 35.9545 166.889 35.9545C167.586 35.9545 168.219 35.8333 168.787 35.5909C169.355 35.3485 169.836 35 170.23 34.5455C170.624 34.0909 170.904 33.5455 171.071 32.9091H173.753C173.601 33.9394 173.226 34.8674 172.628 35.6932C172.037 36.5114 171.253 37.1629 170.276 37.6477C169.306 38.125 168.177 38.3636 166.889 38.3636ZM185.264 20.5455V22.8182H176.219V20.5455H185.264ZM178.855 16.3636H181.537V33C181.537 33.7576 181.647 34.3258 181.866 34.7045C182.094 35.0758 182.382 35.3258 182.73 35.4545C183.086 35.5758 183.461 35.6364 183.855 35.6364C184.151 35.6364 184.393 35.6212 184.582 35.5909C184.772 35.553 184.923 35.5227 185.037 35.5L185.582 37.9091C185.401 37.9773 185.147 38.0455 184.821 38.1136C184.495 38.1894 184.082 38.2273 183.582 38.2273C182.825 38.2273 182.082 38.0644 181.355 37.7386C180.635 37.4129 180.037 36.9167 179.56 36.25C179.09 35.5833 178.855 34.7424 178.855 33.7273V16.3636Z" fill="black"/>
</svg>
