<svg width="283" height="49" viewBox="0 0 283 49" fill="none" xmlns="http://www.w3.org/2000/svg">
<path d="M15 48H4.22727V13.0909H15.4773C18.8636 13.0909 21.7614 13.7898 24.1705 15.1875C26.5795 16.5739 28.4261 18.5682 29.7102 21.1705C30.9943 23.7614 31.6364 26.8636 31.6364 30.4773C31.6364 34.1136 30.9886 37.2443 29.6932 39.8693C28.3977 42.483 26.5114 44.4943 24.0341 45.9034C21.5568 47.3011 18.5455 48 15 48ZM8.45455 44.25H14.7273C17.6136 44.25 20.0057 43.6932 21.9034 42.5795C23.8011 41.4659 25.2159 39.8807 26.1477 37.8239C27.0795 35.767 27.5455 33.3182 27.5455 30.4773C27.5455 27.6591 27.0852 25.233 26.1648 23.1989C25.2443 21.1534 23.8693 19.5852 22.0398 18.4943C20.2102 17.392 17.9318 16.8409 15.2045 16.8409H8.45455V44.25ZM49.1591 48.5455C46.6364 48.5455 44.4602 47.9886 42.6307 46.875C40.8125 45.75 39.4091 44.1818 38.4205 42.1705C37.4432 40.1477 36.9545 37.7955 36.9545 35.1136C36.9545 32.4318 37.4432 30.0682 38.4205 28.0227C39.4091 25.9659 40.7841 24.3636 42.5455 23.2159C44.3182 22.0568 46.3864 21.4773 48.75 21.4773C50.1136 21.4773 51.4602 21.7045 52.7898 22.1591C54.1193 22.6136 55.3295 23.3523 56.4205 24.375C57.5114 25.3864 58.3807 26.7273 59.0284 28.3977C59.6761 30.0682 60 32.125 60 34.5682V36.2727H39.8182V32.7955H55.9091C55.9091 31.3182 55.6136 30 55.0227 28.8409C54.4432 27.6818 53.6136 26.767 52.5341 26.0966C51.4659 25.4261 50.2045 25.0909 48.75 25.0909C47.1477 25.0909 45.7614 25.4886 44.5909 26.2841C43.4318 27.0682 42.5398 28.0909 41.9148 29.3523C41.2898 30.6136 40.9773 31.9659 40.9773 33.4091V35.7273C40.9773 37.7045 41.3182 39.3807 42 40.7557C42.6932 42.1193 43.6534 43.1591 44.8807 43.875C46.108 44.5795 47.5341 44.9318 49.1591 44.9318C50.2159 44.9318 51.1705 44.7841 52.0227 44.4886C52.8864 44.1818 53.6307 43.7273 54.2557 43.125C54.8807 42.5114 55.3636 41.75 55.7045 40.8409L59.5909 41.9318C59.1818 43.25 58.4943 44.4091 57.5284 45.4091C56.5625 46.3977 55.3693 47.1705 53.9489 47.7273C52.5284 48.2727 50.9318 48.5455 49.1591 48.5455ZM86.7315 21.8182L77.0497 48H72.9588L63.277 21.8182H67.6406L74.8679 42.6818H75.1406L82.3679 21.8182H86.7315ZM120.678 24H116.45C116.2 22.7841 115.763 21.7159 115.138 20.7955C114.524 19.875 113.774 19.1023 112.888 18.4773C112.013 17.8409 111.041 17.3636 109.973 17.0455C108.905 16.7273 107.791 16.5682 106.632 16.5682C104.518 16.5682 102.604 17.1023 100.888 18.1705C99.1832 19.2386 97.8253 20.8125 96.8139 22.892C95.8139 24.9716 95.3139 27.5227 95.3139 30.5455C95.3139 33.5682 95.8139 36.1193 96.8139 38.1989C97.8253 40.2784 99.1832 41.8523 100.888 42.9205C102.604 43.9886 104.518 44.5227 106.632 44.5227C107.791 44.5227 108.905 44.3636 109.973 44.0455C111.041 43.7273 112.013 43.2557 112.888 42.6307C113.774 41.9943 114.524 41.2159 115.138 40.2955C115.763 39.3636 116.2 38.2955 116.45 37.0909H120.678C120.359 38.875 119.78 40.4716 118.939 41.8807C118.098 43.2898 117.053 44.4886 115.803 45.4773C114.553 46.4545 113.149 47.1989 111.592 47.7102C110.047 48.2216 108.393 48.4773 106.632 48.4773C103.655 48.4773 101.007 47.75 98.6889 46.2955C96.3707 44.8409 94.5469 42.7727 93.2173 40.0909C91.8878 37.4091 91.223 34.2273 91.223 30.5455C91.223 26.8636 91.8878 23.6818 93.2173 21C94.5469 18.3182 96.3707 16.25 98.6889 14.7955C101.007 13.3409 103.655 12.6136 106.632 12.6136C108.393 12.6136 110.047 12.8693 111.592 13.3807C113.149 13.892 114.553 14.642 115.803 15.6307C117.053 16.608 118.098 17.8011 118.939 19.2102C119.78 20.608 120.359 22.2045 120.678 24ZM137.599 48.5455C135.236 48.5455 133.162 47.983 131.378 46.858C129.605 45.733 128.219 44.1591 127.219 42.1364C126.23 40.1136 125.736 37.75 125.736 35.0455C125.736 32.3182 126.23 29.9375 127.219 27.9034C128.219 25.8693 129.605 24.2898 131.378 23.1648C133.162 22.0398 135.236 21.4773 137.599 21.4773C139.963 21.4773 142.031 22.0398 143.804 23.1648C145.588 24.2898 146.974 25.8693 147.963 27.9034C148.963 29.9375 149.463 32.3182 149.463 35.0455C149.463 37.75 148.963 40.1136 147.963 42.1364C146.974 44.1591 145.588 45.733 143.804 46.858C142.031 47.983 139.963 48.5455 137.599 48.5455ZM137.599 44.9318C139.395 44.9318 140.872 44.4716 142.031 43.5511C143.19 42.6307 144.048 41.4205 144.605 39.9205C145.162 38.4205 145.44 36.7955 145.44 35.0455C145.44 33.2955 145.162 31.6648 144.605 30.1534C144.048 28.642 143.19 27.4205 142.031 26.4886C140.872 25.5568 139.395 25.0909 137.599 25.0909C135.804 25.0909 134.327 25.5568 133.168 26.4886C132.009 27.4205 131.151 28.642 130.594 30.1534C130.037 31.6648 129.759 33.2955 129.759 35.0455C129.759 36.7955 130.037 38.4205 130.594 39.9205C131.151 41.4205 132.009 42.6307 133.168 43.5511C134.327 44.4716 135.804 44.9318 137.599 44.9318ZM159.626 32.25V48H155.604V21.8182H159.49V25.9091H159.831C160.445 24.5795 161.376 23.5114 162.626 22.7045C163.876 21.8864 165.49 21.4773 167.467 21.4773C169.24 21.4773 170.791 21.8409 172.121 22.5682C173.45 23.2841 174.484 24.375 175.223 25.8409C175.962 27.2955 176.331 29.1364 176.331 31.3636V48H172.308V31.6364C172.308 29.5795 171.774 27.9773 170.706 26.8295C169.638 25.6705 168.172 25.0909 166.308 25.0909C165.024 25.0909 163.876 25.3693 162.865 25.9261C161.865 26.483 161.075 27.2955 160.496 28.3636C159.916 29.4318 159.626 30.7273 159.626 32.25ZM187.705 32.25V48H183.682V21.8182H187.568V25.9091H187.909C188.523 24.5795 189.455 23.5114 190.705 22.7045C191.955 21.8864 193.568 21.4773 195.545 21.4773C197.318 21.4773 198.869 21.8409 200.199 22.5682C201.528 23.2841 202.563 24.375 203.301 25.8409C204.04 27.2955 204.409 29.1364 204.409 31.3636V48H200.386V31.6364C200.386 29.5795 199.852 27.9773 198.784 26.8295C197.716 25.6705 196.25 25.0909 194.386 25.0909C193.102 25.0909 191.955 25.3693 190.943 25.9261C189.943 26.483 189.153 27.2955 188.574 28.3636C187.994 29.4318 187.705 30.7273 187.705 32.25ZM222.737 48.5455C220.214 48.5455 218.038 47.9886 216.209 46.875C214.391 45.75 212.987 44.1818 211.999 42.1705C211.021 40.1477 210.533 37.7955 210.533 35.1136C210.533 32.4318 211.021 30.0682 211.999 28.0227C212.987 25.9659 214.362 24.3636 216.124 23.2159C217.896 22.0568 219.964 21.4773 222.328 21.4773C223.692 21.4773 225.038 21.7045 226.368 22.1591C227.697 22.6136 228.908 23.3523 229.999 24.375C231.089 25.3864 231.959 26.7273 232.607 28.3977C233.254 30.0682 233.578 32.125 233.578 34.5682V36.2727H213.396V32.7955H229.487C229.487 31.3182 229.192 30 228.601 28.8409C228.021 27.6818 227.192 26.767 226.112 26.0966C225.044 25.4261 223.783 25.0909 222.328 25.0909C220.726 25.0909 219.339 25.4886 218.169 26.2841C217.01 27.0682 216.118 28.0909 215.493 29.3523C214.868 30.6136 214.555 31.9659 214.555 33.4091V35.7273C214.555 37.7045 214.896 39.3807 215.578 40.7557C216.271 42.1193 217.232 43.1591 218.459 43.875C219.686 44.5795 221.112 44.9318 222.737 44.9318C223.794 44.9318 224.749 44.7841 225.601 44.4886C226.464 44.1818 227.209 43.7273 227.834 43.125C228.459 42.5114 228.942 41.75 229.283 40.8409L233.169 41.9318C232.76 43.25 232.072 44.4091 231.107 45.4091C230.141 46.3977 228.947 47.1705 227.527 47.7273C226.107 48.2727 224.51 48.5455 222.737 48.5455ZM250.334 48.5455C247.879 48.5455 245.766 47.9659 243.993 46.8068C242.22 45.6477 240.857 44.0511 239.902 42.017C238.947 39.983 238.47 37.6591 238.47 35.0455C238.47 32.3864 238.959 30.0398 239.936 28.0057C240.925 25.9602 242.3 24.3636 244.061 23.2159C245.834 22.0568 247.902 21.4773 250.266 21.4773C252.107 21.4773 253.766 21.8182 255.243 22.5C256.72 23.1818 257.93 24.1364 258.874 25.3636C259.817 26.5909 260.402 28.0227 260.629 29.6591H256.607C256.3 28.4659 255.618 27.4091 254.561 26.4886C253.516 25.5568 252.107 25.0909 250.334 25.0909C248.766 25.0909 247.391 25.5 246.209 26.3182C245.038 27.125 244.124 28.267 243.464 29.7443C242.817 31.2102 242.493 32.9318 242.493 34.9091C242.493 36.9318 242.811 38.6932 243.447 40.1932C244.095 41.6932 245.004 42.858 246.175 43.6875C247.357 44.517 248.743 44.9318 250.334 44.9318C251.379 44.9318 252.328 44.75 253.18 44.3864C254.033 44.0227 254.754 43.5 255.345 42.8182C255.936 42.1364 256.357 41.3182 256.607 40.3636H260.629C260.402 41.9091 259.839 43.3011 258.942 44.5398C258.055 45.767 256.879 46.7443 255.413 47.4716C253.959 48.1875 252.266 48.5455 250.334 48.5455ZM277.896 21.8182V25.2273H264.328V21.8182H277.896ZM268.283 15.5455H272.305V40.5C272.305 41.6364 272.47 42.4886 272.8 43.0568C273.141 43.6136 273.572 43.9886 274.095 44.1818C274.629 44.3636 275.192 44.4545 275.783 44.4545C276.226 44.4545 276.589 44.4318 276.874 44.3864C277.158 44.3295 277.385 44.2841 277.555 44.25L278.374 47.8636C278.101 47.9659 277.72 48.0682 277.232 48.1705C276.743 48.2841 276.124 48.3409 275.374 48.3409C274.237 48.3409 273.124 48.0966 272.033 47.608C270.953 47.1193 270.055 46.375 269.339 45.375C268.635 44.375 268.283 43.1136 268.283 41.5909V15.5455Z" fill="white"/>
</svg>
