<svg width="247" height="37" viewBox="0 0 247 37" fill="none" xmlns="http://www.w3.org/2000/svg">
<path d="M11 36H0.227273V1.09091H11.4773C14.8636 1.09091 17.7614 1.78977 20.1705 3.1875C22.5795 4.57386 24.4261 6.56818 25.7102 9.17045C26.9943 11.7614 27.6364 14.8636 27.6364 18.4773C27.6364 22.1136 26.9886 25.2443 25.6932 27.8693C24.3977 30.483 22.5114 32.4943 20.0341 33.9034C17.5568 35.3011 14.5455 36 11 36ZM4.45455 32.25H10.7273C13.6136 32.25 16.0057 31.6932 17.9034 30.5795C19.8011 29.4659 21.2159 27.8807 22.1477 25.8239C23.0795 23.767 23.5455 21.3182 23.5455 18.4773C23.5455 15.6591 23.0852 13.233 22.1648 11.1989C21.2443 9.15341 19.8693 7.58523 18.0398 6.49432C16.2102 5.39204 13.9318 4.84091 11.2045 4.84091H4.45455V32.25ZM45.1591 36.5455C42.6364 36.5455 40.4602 35.9886 38.6307 34.875C36.8125 33.75 35.4091 32.1818 34.4205 30.1705C33.4432 28.1477 32.9545 25.7955 32.9545 23.1136C32.9545 20.4318 33.4432 18.0682 34.4205 16.0227C35.4091 13.9659 36.7841 12.3636 38.5455 11.2159C40.3182 10.0568 42.3864 9.47727 44.75 9.47727C46.1136 9.47727 47.4602 9.70455 48.7898 10.1591C50.1193 10.6136 51.3295 11.3523 52.4205 12.375C53.5114 13.3864 54.3807 14.7273 55.0284 16.3977C55.6761 18.0682 56 20.125 56 22.5682V24.2727H35.8182V20.7955H51.9091C51.9091 19.3182 51.6136 18 51.0227 16.8409C50.4432 15.6818 49.6136 14.767 48.5341 14.0966C47.4659 13.4261 46.2045 13.0909 44.75 13.0909C43.1477 13.0909 41.7614 13.4886 40.5909 14.2841C39.4318 15.0682 38.5398 16.0909 37.9148 17.3523C37.2898 18.6136 36.9773 19.9659 36.9773 21.4091V23.7273C36.9773 25.7045 37.3182 27.3807 38 28.7557C38.6932 30.1193 39.6534 31.1591 40.8807 31.875C42.108 32.5795 43.5341 32.9318 45.1591 32.9318C46.2159 32.9318 47.1705 32.7841 48.0227 32.4886C48.8864 32.1818 49.6307 31.7273 50.2557 31.125C50.8807 30.5114 51.3636 29.75 51.7045 28.8409L55.5909 29.9318C55.1818 31.25 54.4943 32.4091 53.5284 33.4091C52.5625 34.3977 51.3693 35.1705 49.9489 35.7273C48.5284 36.2727 46.9318 36.5455 45.1591 36.5455ZM82.7315 9.81818L73.0497 36H68.9588L59.277 9.81818H63.6406L70.8679 30.6818H71.1406L78.3679 9.81818H82.7315ZM116.678 12H112.45C112.2 10.7841 111.763 9.71591 111.138 8.79545C110.524 7.875 109.774 7.10227 108.888 6.47727C108.013 5.84091 107.041 5.36364 105.973 5.04545C104.905 4.72727 103.791 4.56818 102.632 4.56818C100.518 4.56818 98.6037 5.10227 96.8878 6.17045C95.1832 7.23864 93.8253 8.8125 92.8139 10.892C91.8139 12.9716 91.3139 15.5227 91.3139 18.5455C91.3139 21.5682 91.8139 24.1193 92.8139 26.1989C93.8253 28.2784 95.1832 29.8523 96.8878 30.9205C98.6037 31.9886 100.518 32.5227 102.632 32.5227C103.791 32.5227 104.905 32.3636 105.973 32.0455C107.041 31.7273 108.013 31.2557 108.888 30.6307C109.774 29.9943 110.524 29.2159 111.138 28.2955C111.763 27.3636 112.2 26.2955 112.45 25.0909H116.678C116.359 26.875 115.78 28.4716 114.939 29.8807C114.098 31.2898 113.053 32.4886 111.803 33.4773C110.553 34.4545 109.149 35.1989 107.592 35.7102C106.047 36.2216 104.393 36.4773 102.632 36.4773C99.6548 36.4773 97.0071 35.75 94.6889 34.2955C92.3707 32.8409 90.5469 30.7727 89.2173 28.0909C87.8878 25.4091 87.223 22.2273 87.223 18.5455C87.223 14.8636 87.8878 11.6818 89.2173 9C90.5469 6.31818 92.3707 4.25 94.6889 2.79545C97.0071 1.34091 99.6548 0.613635 102.632 0.613635C104.393 0.613635 106.047 0.869317 107.592 1.38068C109.149 1.89205 110.553 2.64205 111.803 3.63068C113.053 4.60795 114.098 5.80114 114.939 7.21023C115.78 8.60795 116.359 10.2045 116.678 12ZM133.599 36.5455C131.236 36.5455 129.162 35.983 127.378 34.858C125.605 33.733 124.219 32.1591 123.219 30.1364C122.23 28.1136 121.736 25.75 121.736 23.0455C121.736 20.3182 122.23 17.9375 123.219 15.9034C124.219 13.8693 125.605 12.2898 127.378 11.1648C129.162 10.0398 131.236 9.47727 133.599 9.47727C135.963 9.47727 138.031 10.0398 139.804 11.1648C141.588 12.2898 142.974 13.8693 143.963 15.9034C144.963 17.9375 145.463 20.3182 145.463 23.0455C145.463 25.75 144.963 28.1136 143.963 30.1364C142.974 32.1591 141.588 33.733 139.804 34.858C138.031 35.983 135.963 36.5455 133.599 36.5455ZM133.599 32.9318C135.395 32.9318 136.872 32.4716 138.031 31.5511C139.19 30.6307 140.048 29.4205 140.605 27.9205C141.162 26.4205 141.44 24.7955 141.44 23.0455C141.44 21.2955 141.162 19.6648 140.605 18.1534C140.048 16.642 139.19 15.4205 138.031 14.4886C136.872 13.5568 135.395 13.0909 133.599 13.0909C131.804 13.0909 130.327 13.5568 129.168 14.4886C128.009 15.4205 127.151 16.642 126.594 18.1534C126.037 19.6648 125.759 21.2955 125.759 23.0455C125.759 24.7955 126.037 26.4205 126.594 27.9205C127.151 29.4205 128.009 30.6307 129.168 31.5511C130.327 32.4716 131.804 32.9318 133.599 32.9318ZM155.626 20.25V36H151.604V9.81818H155.49V13.9091H155.831C156.445 12.5795 157.376 11.5114 158.626 10.7045C159.876 9.88636 161.49 9.47727 163.467 9.47727C165.24 9.47727 166.791 9.84091 168.121 10.5682C169.45 11.2841 170.484 12.375 171.223 13.8409C171.962 15.2955 172.331 17.1364 172.331 19.3636V36H168.308V19.6364C168.308 17.5795 167.774 15.9773 166.706 14.8295C165.638 13.6705 164.172 13.0909 162.308 13.0909C161.024 13.0909 159.876 13.3693 158.865 13.9261C157.865 14.483 157.075 15.2955 156.496 16.3636C155.916 17.4318 155.626 18.7273 155.626 20.25ZM190.659 36.5455C188.136 36.5455 185.96 35.9886 184.131 34.875C182.312 33.75 180.909 32.1818 179.92 30.1705C178.943 28.1477 178.455 25.7955 178.455 23.1136C178.455 20.4318 178.943 18.0682 179.92 16.0227C180.909 13.9659 182.284 12.3636 184.045 11.2159C185.818 10.0568 187.886 9.47727 190.25 9.47727C191.614 9.47727 192.96 9.70455 194.29 10.1591C195.619 10.6136 196.83 11.3523 197.92 12.375C199.011 13.3864 199.881 14.7273 200.528 16.3977C201.176 18.0682 201.5 20.125 201.5 22.5682V24.2727H181.318V20.7955H197.409C197.409 19.3182 197.114 18 196.523 16.8409C195.943 15.6818 195.114 14.767 194.034 14.0966C192.966 13.4261 191.705 13.0909 190.25 13.0909C188.648 13.0909 187.261 13.4886 186.091 14.2841C184.932 15.0682 184.04 16.0909 183.415 17.3523C182.79 18.6136 182.477 19.9659 182.477 21.4091V23.7273C182.477 25.7045 182.818 27.3807 183.5 28.7557C184.193 30.1193 185.153 31.1591 186.381 31.875C187.608 32.5795 189.034 32.9318 190.659 32.9318C191.716 32.9318 192.67 32.7841 193.523 32.4886C194.386 32.1818 195.131 31.7273 195.756 31.125C196.381 30.5114 196.864 29.75 197.205 28.8409L201.091 29.9318C200.682 31.25 199.994 32.4091 199.028 33.4091C198.063 34.3977 196.869 35.1705 195.449 35.7273C194.028 36.2727 192.432 36.5455 190.659 36.5455ZM218.256 36.5455C215.801 36.5455 213.688 35.9659 211.915 34.8068C210.142 33.6477 208.778 32.0511 207.824 30.017C206.869 27.983 206.392 25.6591 206.392 23.0455C206.392 20.3864 206.881 18.0398 207.858 16.0057C208.847 13.9602 210.222 12.3636 211.983 11.2159C213.756 10.0568 215.824 9.47727 218.188 9.47727C220.028 9.47727 221.688 9.81818 223.165 10.5C224.642 11.1818 225.852 12.1364 226.795 13.3636C227.739 14.5909 228.324 16.0227 228.551 17.6591H224.528C224.222 16.4659 223.54 15.4091 222.483 14.4886C221.438 13.5568 220.028 13.0909 218.256 13.0909C216.688 13.0909 215.313 13.5 214.131 14.3182C212.96 15.125 212.045 16.267 211.386 17.7443C210.739 19.2102 210.415 20.9318 210.415 22.9091C210.415 24.9318 210.733 26.6932 211.369 28.1932C212.017 29.6932 212.926 30.858 214.097 31.6875C215.278 32.517 216.665 32.9318 218.256 32.9318C219.301 32.9318 220.25 32.75 221.102 32.3864C221.955 32.0227 222.676 31.5 223.267 30.8182C223.858 30.1364 224.278 29.3182 224.528 28.3636H228.551C228.324 29.9091 227.761 31.3011 226.864 32.5398C225.977 33.767 224.801 34.7443 223.335 35.4716C221.881 36.1875 220.188 36.5455 218.256 36.5455ZM245.818 9.81818V13.2273H232.25V9.81818H245.818ZM236.205 3.54545H240.227V28.5C240.227 29.6364 240.392 30.4886 240.722 31.0568C241.063 31.6136 241.494 31.9886 242.017 32.1818C242.551 32.3636 243.114 32.4545 243.705 32.4545C244.148 32.4545 244.511 32.4318 244.795 32.3864C245.08 32.3295 245.307 32.2841 245.477 32.25L246.295 35.8636C246.023 35.9659 245.642 36.0682 245.153 36.1705C244.665 36.2841 244.045 36.3409 243.295 36.3409C242.159 36.3409 241.045 36.0966 239.955 35.608C238.875 35.1193 237.977 34.375 237.261 33.375C236.557 32.375 236.205 31.1136 236.205 29.5909V3.54545Z" fill="white"/>
</svg>
