<svg width="89" height="28" viewBox="0 0 89 28" fill="none" xmlns="http://www.w3.org/2000/svg">
<path d="M7.5 27H2.11364V9.54545H7.73864C9.43182 9.54545 10.8807 9.89489 12.0852 10.5938C13.2898 11.2869 14.2131 12.2841 14.8551 13.5852C15.4972 14.8807 15.8182 16.4318 15.8182 18.2386C15.8182 20.0568 15.4943 21.6222 14.8466 22.9347C14.1989 24.2415 13.2557 25.2472 12.017 25.9517C10.7784 26.6506 9.27273 27 7.5 27ZM4.22727 25.125H7.36364C8.80682 25.125 10.0028 24.8466 10.9517 24.2898C11.9006 23.733 12.608 22.9403 13.0739 21.9119C13.5398 20.8835 13.7727 19.6591 13.7727 18.2386C13.7727 16.8295 13.5426 15.6165 13.0824 14.5994C12.6222 13.5767 11.9347 12.7926 11.0199 12.2472C10.1051 11.696 8.96591 11.4205 7.60227 11.4205H4.22727V25.125ZM24.5795 27.2727C23.3182 27.2727 22.2301 26.9943 21.3153 26.4375C20.4062 25.875 19.7045 25.0909 19.2102 24.0852C18.7216 23.0739 18.4773 21.8977 18.4773 20.5568C18.4773 19.2159 18.7216 18.0341 19.2102 17.0114C19.7045 15.983 20.392 15.1818 21.2727 14.608C22.1591 14.0284 23.1932 13.7386 24.375 13.7386C25.0568 13.7386 25.7301 13.8523 26.3949 14.0795C27.0597 14.3068 27.6648 14.6761 28.2102 15.1875C28.7557 15.6932 29.1903 16.3636 29.5142 17.1989C29.8381 18.0341 30 19.0625 30 20.2841V21.1364H19.9091V19.3977H27.9545C27.9545 18.6591 27.8068 18 27.5114 17.4205C27.2216 16.8409 26.8068 16.3835 26.267 16.0483C25.733 15.7131 25.1023 15.5455 24.375 15.5455C23.5739 15.5455 22.8807 15.7443 22.2955 16.142C21.7159 16.5341 21.2699 17.0455 20.9574 17.6761C20.6449 18.3068 20.4886 18.983 20.4886 19.7045V20.8636C20.4886 21.8523 20.6591 22.6903 21 23.3778C21.3466 24.0597 21.8267 24.5795 22.4403 24.9375C23.054 25.2898 23.767 25.4659 24.5795 25.4659C25.108 25.4659 25.5852 25.392 26.0114 25.2443C26.4432 25.0909 26.8153 24.8636 27.1278 24.5625C27.4403 24.2557 27.6818 23.875 27.8523 23.4205L29.7955 23.9659C29.5909 24.625 29.2472 25.2045 28.7642 25.7045C28.2813 26.1989 27.6847 26.5852 26.9744 26.8636C26.2642 27.1364 25.4659 27.2727 24.5795 27.2727ZM43.3658 13.9091L38.5249 27H36.4794L31.6385 13.9091H33.8203L37.4339 24.3409H37.5703L41.1839 13.9091H43.3658ZM60.3388 15H58.2251C58.1001 14.392 57.8814 13.858 57.5689 13.3977C57.2621 12.9375 56.8871 12.5511 56.4439 12.2386C56.0064 11.9205 55.5206 11.6818 54.9865 11.5227C54.4524 11.3636 53.8956 11.2841 53.3161 11.2841C52.2592 11.2841 51.3018 11.5511 50.4439 12.0852C49.5916 12.6193 48.9126 13.4062 48.407 14.446C47.907 15.4858 47.657 16.7614 47.657 18.2727C47.657 19.7841 47.907 21.0597 48.407 22.0994C48.9126 23.1392 49.5916 23.9261 50.4439 24.4602C51.3018 24.9943 52.2592 25.2614 53.3161 25.2614C53.8956 25.2614 54.4524 25.1818 54.9865 25.0227C55.5206 24.8636 56.0064 24.6278 56.4439 24.3153C56.8871 23.9972 57.2621 23.608 57.5689 23.1477C57.8814 22.6818 58.1001 22.1477 58.2251 21.5455H60.3388C60.1797 22.4375 59.8899 23.2358 59.4695 23.9403C59.049 24.6449 58.5263 25.2443 57.9013 25.7386C57.2763 26.2273 56.5746 26.5994 55.7962 26.8551C55.0234 27.1108 54.1967 27.2386 53.3161 27.2386C51.8274 27.2386 50.5036 26.875 49.3445 26.1477C48.1854 25.4205 47.2734 24.3864 46.6087 23.0455C45.9439 21.7045 45.6115 20.1136 45.6115 18.2727C45.6115 16.4318 45.9439 14.8409 46.6087 13.5C47.2734 12.1591 48.1854 11.125 49.3445 10.3977C50.5036 9.67045 51.8274 9.30682 53.3161 9.30682C54.1967 9.30682 55.0234 9.43466 55.7962 9.69034C56.5746 9.94602 57.2763 10.321 57.9013 10.8153C58.5263 11.304 59.049 11.9006 59.4695 12.6051C59.8899 13.304 60.1797 14.1023 60.3388 15ZM68.7997 27.2727C67.6179 27.2727 66.581 26.9915 65.6889 26.429C64.8026 25.8665 64.1094 25.0795 63.6094 24.0682C63.1151 23.0568 62.8679 21.875 62.8679 20.5227C62.8679 19.1591 63.1151 17.9687 63.6094 16.9517C64.1094 15.9347 64.8026 15.1449 65.6889 14.5824C66.581 14.0199 67.6179 13.7386 68.7997 13.7386C69.9815 13.7386 71.0156 14.0199 71.902 14.5824C72.794 15.1449 73.4872 15.9347 73.9815 16.9517C74.4815 17.9687 74.7315 19.1591 74.7315 20.5227C74.7315 21.875 74.4815 23.0568 73.9815 24.0682C73.4872 25.0795 72.794 25.8665 71.902 26.429C71.0156 26.9915 69.9815 27.2727 68.7997 27.2727ZM68.7997 25.4659C69.6974 25.4659 70.4361 25.2358 71.0156 24.7756C71.5952 24.3153 72.0241 23.7102 72.3026 22.9602C72.581 22.2102 72.7202 21.3977 72.7202 20.5227C72.7202 19.6477 72.581 18.8324 72.3026 18.0767C72.0241 17.321 71.5952 16.7102 71.0156 16.2443C70.4361 15.7784 69.6974 15.5455 68.7997 15.5455C67.902 15.5455 67.1634 15.7784 66.5838 16.2443C66.0043 16.7102 65.5753 17.321 65.2969 18.0767C65.0185 18.8324 64.8793 19.6477 64.8793 20.5227C64.8793 21.3977 65.0185 22.2102 65.2969 22.9602C65.5753 23.7102 66.0043 24.3153 66.5838 24.7756C67.1634 25.2358 67.902 25.4659 68.7997 25.4659ZM79.8132 19.125V27H77.8018V13.9091H79.745V15.9545H79.9155C80.2223 15.2898 80.6882 14.7557 81.3132 14.3523C81.9382 13.9432 82.745 13.7386 83.7337 13.7386C84.62 13.7386 85.3956 13.9205 86.0604 14.2841C86.7251 14.642 87.2422 15.1875 87.6115 15.9205C87.9808 16.6477 88.1655 17.5682 88.1655 18.6818V27H86.1541V18.8182C86.1541 17.7898 85.8871 16.9886 85.353 16.4148C84.8189 15.8352 84.0859 15.5455 83.1541 15.5455C82.5121 15.5455 81.9382 15.6847 81.4325 15.9631C80.9325 16.2415 80.5376 16.6477 80.2479 17.1818C79.9581 17.7159 79.8132 18.3636 79.8132 19.125Z" fill="black"/>
</svg>
