<svg width="174" height="48" viewBox="0 0 174 48" fill="none" xmlns="http://www.w3.org/2000/svg">
<path d="M10 38H2.81818V14.7273H10.3182C12.5758 14.7273 14.5076 15.1932 16.1136 16.125C17.7197 17.0492 18.9508 18.3788 19.8068 20.1136C20.6629 21.8409 21.0909 23.9091 21.0909 26.3182C21.0909 28.7424 20.6591 30.8295 19.7955 32.5795C18.9318 34.322 17.6742 35.6629 16.0227 36.6023C14.3712 37.5341 12.3636 38 10 38ZM5.63636 35.5H9.81818C11.7424 35.5 13.3371 35.1288 14.6023 34.3864C15.8674 33.6439 16.8106 32.5871 17.4318 31.2159C18.053 29.8447 18.3636 28.2121 18.3636 26.3182C18.3636 24.4394 18.0568 22.822 17.4432 21.4659C16.8295 20.1023 15.9129 19.0568 14.6932 18.3295C13.4735 17.5947 11.9545 17.2273 10.1364 17.2273H5.63636V35.5ZM32.7727 38.3636C31.0909 38.3636 29.6402 37.9924 28.4205 37.25C27.2083 36.5 26.2727 35.4545 25.6136 34.1136C24.9621 32.7652 24.6364 31.197 24.6364 29.4091C24.6364 27.6212 24.9621 26.0455 25.6136 24.6818C26.2727 23.3106 27.1894 22.2424 28.3636 21.4773C29.5455 20.7045 30.9242 20.3182 32.5 20.3182C33.4091 20.3182 34.3068 20.4697 35.1932 20.7727C36.0795 21.0758 36.8864 21.5682 37.6136 22.25C38.3409 22.9242 38.9205 23.8182 39.3523 24.9318C39.7841 26.0455 40 27.4167 40 29.0455V30.1818H26.5455V27.8636H37.2727C37.2727 26.8788 37.0758 26 36.6818 25.2273C36.2955 24.4545 35.7424 23.8447 35.0227 23.3977C34.3106 22.9508 33.4697 22.7273 32.5 22.7273C31.4318 22.7273 30.5076 22.9924 29.7273 23.5227C28.9545 24.0455 28.3598 24.7273 27.9432 25.5682C27.5265 26.4091 27.3182 27.3106 27.3182 28.2727V29.8182C27.3182 31.1364 27.5455 32.2538 28 33.1705C28.4621 34.0795 29.1023 34.7727 29.9205 35.25C30.7386 35.7197 31.6894 35.9545 32.7727 35.9545C33.4773 35.9545 34.1136 35.8561 34.6818 35.6591C35.2576 35.4545 35.7538 35.1515 36.1705 34.75C36.5871 34.3409 36.9091 33.8333 37.1364 33.2273L39.7273 33.9545C39.4545 34.8333 38.9962 35.6061 38.3523 36.2727C37.7083 36.9318 36.9129 37.447 35.9659 37.8182C35.0189 38.1818 33.9545 38.3636 32.7727 38.3636ZM57.821 20.5455L51.3665 38H48.6392L42.1847 20.5455H45.0938L49.9119 34.4545H50.0938L54.9119 20.5455H57.821ZM80.4517 22H77.6335C77.4669 21.1894 77.1752 20.4773 76.7585 19.8636C76.3494 19.25 75.8494 18.7348 75.2585 18.3182C74.6752 17.8939 74.0275 17.5758 73.3153 17.3636C72.6032 17.1515 71.8608 17.0455 71.0881 17.0455C69.679 17.0455 68.4025 17.4015 67.2585 18.1136C66.1222 18.8258 65.2169 19.875 64.5426 21.2614C63.8759 22.6477 63.5426 24.3485 63.5426 26.3636C63.5426 28.3788 63.8759 30.0795 64.5426 31.4659C65.2169 32.8523 66.1222 33.9015 67.2585 34.6136C68.4025 35.3258 69.679 35.6818 71.0881 35.6818C71.8608 35.6818 72.6032 35.5758 73.3153 35.3636C74.0275 35.1515 74.6752 34.8371 75.2585 34.4205C75.8494 33.9962 76.3494 33.4773 76.7585 32.8636C77.1752 32.2424 77.4669 31.5303 77.6335 30.7273H80.4517C80.2396 31.9167 79.8532 32.9811 79.2926 33.9205C78.732 34.8598 78.035 35.6591 77.2017 36.3182C76.3684 36.9697 75.4328 37.4659 74.3949 37.8068C73.3646 38.1477 72.2623 38.3182 71.0881 38.3182C69.1032 38.3182 67.3381 37.8333 65.7926 36.8636C64.2472 35.8939 63.0313 34.5152 62.1449 32.7273C61.2585 30.9394 60.8153 28.8182 60.8153 26.3636C60.8153 23.9091 61.2585 21.7879 62.1449 20C63.0313 18.2121 64.2472 16.8333 65.7926 15.8636C67.3381 14.8939 69.1032 14.4091 71.0881 14.4091C72.2623 14.4091 73.3646 14.5795 74.3949 14.9205C75.4328 15.2614 76.3684 15.7614 77.2017 16.4205C78.035 17.072 78.732 17.8674 79.2926 18.8068C79.8532 19.7386 80.2396 20.803 80.4517 22ZM91.733 38.3636C90.1572 38.3636 88.7746 37.9886 87.5852 37.2386C86.4034 36.4886 85.4792 35.4394 84.8125 34.0909C84.1534 32.7424 83.8239 31.1667 83.8239 29.3636C83.8239 27.5455 84.1534 25.9583 84.8125 24.6023C85.4792 23.2462 86.4034 22.1932 87.5852 21.4432C88.7746 20.6932 90.1572 20.3182 91.733 20.3182C93.3087 20.3182 94.6875 20.6932 95.8693 21.4432C97.0587 22.1932 97.983 23.2462 98.642 24.6023C99.3087 25.9583 99.642 27.5455 99.642 29.3636C99.642 31.1667 99.3087 32.7424 98.642 34.0909C97.983 35.4394 97.0587 36.4886 95.8693 37.2386C94.6875 37.9886 93.3087 38.3636 91.733 38.3636ZM91.733 35.9545C92.9299 35.9545 93.9148 35.6477 94.6875 35.0341C95.4602 34.4205 96.0322 33.6136 96.4034 32.6136C96.7746 31.6136 96.9602 30.5303 96.9602 29.3636C96.9602 28.197 96.7746 27.1098 96.4034 26.1023C96.0322 25.0947 95.4602 24.2803 94.6875 23.6591C93.9148 23.0379 92.9299 22.7273 91.733 22.7273C90.536 22.7273 89.5511 23.0379 88.7784 23.6591C88.0057 24.2803 87.4337 25.0947 87.0625 26.1023C86.6913 27.1098 86.5057 28.197 86.5057 29.3636C86.5057 30.5303 86.6913 31.6136 87.0625 32.6136C87.4337 33.6136 88.0057 34.4205 88.7784 35.0341C89.5511 35.6477 90.536 35.9545 91.733 35.9545ZM106.418 27.5V38H103.736V20.5455H106.327V23.2727H106.554C106.963 22.3864 107.584 21.6742 108.418 21.1364C109.251 20.5909 110.327 20.3182 111.645 20.3182C112.827 20.3182 113.861 20.5606 114.747 21.0455C115.634 21.5227 116.323 22.25 116.815 23.2273C117.308 24.197 117.554 25.4242 117.554 26.9091V38H114.872V27.0909C114.872 25.7197 114.516 24.6515 113.804 23.8864C113.092 23.1136 112.115 22.7273 110.872 22.7273C110.016 22.7273 109.251 22.9129 108.577 23.2841C107.91 23.6553 107.384 24.197 106.997 24.9091C106.611 25.6212 106.418 26.4848 106.418 27.5ZM129.773 38.3636C128.091 38.3636 126.64 37.9924 125.42 37.25C124.208 36.5 123.273 35.4545 122.614 34.1136C121.962 32.7652 121.636 31.197 121.636 29.4091C121.636 27.6212 121.962 26.0455 122.614 24.6818C123.273 23.3106 124.189 22.2424 125.364 21.4773C126.545 20.7045 127.924 20.3182 129.5 20.3182C130.409 20.3182 131.307 20.4697 132.193 20.7727C133.08 21.0758 133.886 21.5682 134.614 22.25C135.341 22.9242 135.92 23.8182 136.352 24.9318C136.784 26.0455 137 27.4167 137 29.0455V30.1818H123.545V27.8636H134.273C134.273 26.8788 134.076 26 133.682 25.2273C133.295 24.4545 132.742 23.8447 132.023 23.3977C131.311 22.9508 130.47 22.7273 129.5 22.7273C128.432 22.7273 127.508 22.9924 126.727 23.5227C125.955 24.0455 125.36 24.7273 124.943 25.5682C124.527 26.4091 124.318 27.3106 124.318 28.2727V29.8182C124.318 31.1364 124.545 32.2538 125 33.1705C125.462 34.0795 126.102 34.7727 126.92 35.25C127.739 35.7197 128.689 35.9545 129.773 35.9545C130.477 35.9545 131.114 35.8561 131.682 35.6591C132.258 35.4545 132.754 35.1515 133.17 34.75C133.587 34.3409 133.909 33.8333 134.136 33.2273L136.727 33.9545C136.455 34.8333 135.996 35.6061 135.352 36.2727C134.708 36.9318 133.913 37.447 132.966 37.8182C132.019 38.1818 130.955 38.3636 129.773 38.3636ZM148.17 38.3636C146.534 38.3636 145.125 37.9773 143.943 37.2045C142.761 36.4318 141.852 35.3674 141.216 34.0114C140.58 32.6553 140.261 31.1061 140.261 29.3636C140.261 27.5909 140.587 26.0265 141.239 24.6705C141.898 23.3068 142.814 22.2424 143.989 21.4773C145.17 20.7045 146.549 20.3182 148.125 20.3182C149.352 20.3182 150.458 20.5455 151.443 21C152.428 21.4545 153.235 22.0909 153.864 22.9091C154.492 23.7273 154.883 24.6818 155.034 25.7727H152.352C152.148 24.9773 151.693 24.2727 150.989 23.6591C150.292 23.0379 149.352 22.7273 148.17 22.7273C147.125 22.7273 146.208 23 145.42 23.5455C144.64 24.0833 144.03 24.8447 143.591 25.8295C143.159 26.8068 142.943 27.9545 142.943 29.2727C142.943 30.6212 143.155 31.7955 143.58 32.7955C144.011 33.7955 144.617 34.572 145.398 35.125C146.186 35.678 147.11 35.9545 148.17 35.9545C148.867 35.9545 149.5 35.8333 150.068 35.5909C150.636 35.3485 151.117 35 151.511 34.5455C151.905 34.0909 152.186 33.5455 152.352 32.9091H155.034C154.883 33.9394 154.508 34.8674 153.909 35.6932C153.318 36.5114 152.534 37.1629 151.557 37.6477C150.587 38.125 149.458 38.3636 148.17 38.3636ZM166.545 20.5455V22.8182H157.5V20.5455H166.545ZM160.136 16.3636H162.818V33C162.818 33.7576 162.928 34.3258 163.148 34.7045C163.375 35.0758 163.663 35.3258 164.011 35.4545C164.367 35.5758 164.742 35.6364 165.136 35.6364C165.432 35.6364 165.674 35.6212 165.864 35.5909C166.053 35.553 166.205 35.5227 166.318 35.5L166.864 37.9091C166.682 37.9773 166.428 38.0455 166.102 38.1136C165.777 38.1894 165.364 38.2273 164.864 38.2273C164.106 38.2273 163.364 38.0644 162.636 37.7386C161.917 37.4129 161.318 36.9167 160.841 36.25C160.371 35.5833 160.136 34.7424 160.136 33.7273V16.3636Z" fill="black"/>
</svg>
